# xmcd
# 
# Track frame offsets:
#     150
#     15034
#     32583
#     53606
#     81523
#     91612
#     109266
#     132488
# 
# Disc length: 2497
# 
# Revision: 0
# Processed by: cddbd v1.5.2PL0 Copyright (c) Steve Scherf et al.
# Submitted via: fre:ac v1.0.31
# 
DISCID=5409bf08
DTITLE=Odie Payne Jr. - No! "What Did She Say
DYEAR=0
DGENRE=Blues
TTITLE0=Howdy Do
TTITLE1=Kansas City
TTITLE2=I Left From Home
TTITLE3=I Don't Know
TTITLE4=Tell Me Yes Or No--Vamp
TTITLE5=Blue Blues Blues All The Time
TTITLE6=Tell Me Yes Or No
TTITLE7=I'm Gonna Beat These Drums
EXTD=
EXTT0=
EXTT1=
EXTT2=
EXTT3=
EXTT4=
EXTT5=
EXTT6=
EXTT7=
PLAYORDER=
